<svg xmlns="http://www.w3.org/2000/svg" class="motif" viewBox="0 0 240 160" preserveAspectRatio="xMidYMid slice" aria-hidden="true">
<rect class="motif-ink" x="18" y="2" width="12" height="12"/>
<rect class="motif-accent" x="18" y="18" width="12" height="12"/>
<rect class="motif-accent" x="18" y="34" width="12" height="12"/>
<rect class="motif-accent" x="18" y="50" width="12" height="12"/>
<rect class="motif-accent" x="18" y="66" width="12" height="12"/>
<rect class="motif-accent" x="18" y="82" width="12" height="12"/>
<rect class="motif-accent" x="18" y="98" width="12" height="12"/>
<rect class="motif-line" x="18" y="114" width="12" height="12"/>
<rect class="motif-line" x="18" y="130" width="12" height="12"/>
<rect class="motif-ink" x="50" y="2" width="12" height="12"/>
<rect class="motif-accent" x="50" y="18" width="12" height="12"/>
<rect class="motif-accent" x="50" y="34" width="12" height="12"/>
<rect class="motif-accent" x="50" y="50" width="12" height="12"/>
<rect class="motif-accent" x="50" y="66" width="12" height="12"/>
<rect class="motif-line" x="50" y="82" width="12" height="12"/>
<rect class="motif-line" x="50" y="98" width="12" height="12"/>
<rect class="motif-ink" x="82" y="2" width="12" height="12"/>
<rect class="motif-accent" x="82" y="18" width="12" height="12"/>
<rect class="motif-accent" x="82" y="34" width="12" height="12"/>
<rect class="motif-accent" x="82" y="50" width="12" height="12"/>
<rect class="motif-accent" x="82" y="66" width="12" height="12"/>
<rect class="motif-accent" x="82" y="82" width="12" height="12"/>
<rect class="motif-accent" x="82" y="98" width="12" height="12"/>
<rect class="motif-accent" x="82" y="114" width="12" height="12"/>
<rect class="motif-line" x="82" y="130" width="12" height="12"/>
<rect class="motif-line" x="82" y="146" width="12" height="12"/>
<rect class="motif-ink" x="114" y="2" width="12" height="12"/>
<rect class="motif-line" x="114" y="18" width="12" height="12"/>
<rect class="motif-line" x="114" y="34" width="12" height="12"/>
<rect class="motif-line" x="114" y="50" width="12" height="12"/>
<rect class="motif-line" x="114" y="66" width="12" height="12"/>
<rect class="motif-line" x="114" y="82" width="12" height="12"/>
<rect class="motif-line" x="114" y="98" width="12" height="12"/>
<rect class="motif-line" x="114" y="114" width="12" height="12"/>
<rect class="motif-ink" x="146" y="2" width="12" height="12"/>
<rect class="motif-line" x="146" y="18" width="12" height="12"/>
<rect class="motif-line" x="146" y="34" width="12" height="12"/>
<rect class="motif-signal" x="146" y="50" width="12" height="12"/>
<rect class="motif-line" x="146" y="66" width="12" height="12"/>
<rect class="motif-line" x="146" y="82" width="12" height="12"/>
<rect class="motif-ink" x="178" y="2" width="12" height="12"/>
<rect class="motif-line" x="178" y="18" width="12" height="12"/>
<rect class="motif-line" x="178" y="34" width="12" height="12"/>
<rect class="motif-line" x="178" y="50" width="12" height="12"/>
<rect class="motif-line" x="178" y="66" width="12" height="12"/>
<rect class="motif-line" x="178" y="82" width="12" height="12"/>
<rect class="motif-line" x="178" y="98" width="12" height="12"/>
<rect class="motif-line" x="178" y="114" width="12" height="12"/>
<rect class="motif-line" x="178" y="130" width="12" height="12"/>
<rect class="motif-ink" x="210" y="2" width="12" height="12"/>
<rect class="motif-line" x="210" y="18" width="12" height="12"/>
<rect class="motif-line" x="210" y="34" width="12" height="12"/>
<rect class="motif-line" x="210" y="50" width="12" height="12"/>
<rect class="motif-line" x="210" y="66" width="12" height="12"/>
<rect class="motif-line" x="210" y="82" width="12" height="12"/>
<rect class="motif-line" x="210" y="98" width="12" height="12"/>
<rect class="motif-box" x="143" y="47" width="18" height="18"/>
<rect class="motif-frame" x="0" y="16" width="112" height="112"/>
</svg>
