<svg xmlns="http://www.w3.org/2000/svg" class="motif" viewBox="0 0 240 160" preserveAspectRatio="xMidYMid slice" aria-hidden="true">
<rect class="motif-soft" x="18" y="2" width="12" height="12"/>
<rect class="motif-soft" x="34" y="2" width="12" height="12"/>
<rect class="motif-soft" x="50" y="2" width="12" height="12"/>
<rect class="motif-soft" x="146" y="2" width="12" height="12"/>
<rect class="motif-soft" x="162" y="2" width="12" height="12"/>
<rect class="motif-soft" x="18" y="18" width="12" height="12"/>
<rect class="motif-soft" x="34" y="18" width="12" height="12"/>
<rect class="motif-soft" x="66" y="18" width="12" height="12"/>
<rect class="motif-soft" x="82" y="18" width="12" height="12"/>
<rect class="motif-soft" x="146" y="18" width="12" height="12"/>
<rect class="motif-soft" x="162" y="18" width="12" height="12"/>
<rect class="motif-soft" x="178" y="18" width="12" height="12"/>
<rect class="motif-soft" x="210" y="18" width="12" height="12"/>
<rect class="motif-soft" x="50" y="34" width="12" height="12"/>
<rect class="motif-soft" x="162" y="34" width="12" height="12"/>
<rect class="motif-soft" x="226" y="34" width="12" height="12"/>
<rect class="motif-soft" x="50" y="50" width="12" height="12"/>
<rect class="motif-soft" x="66" y="50" width="12" height="12"/>
<rect class="motif-soft" x="82" y="50" width="12" height="12"/>
<rect class="motif-soft" x="130" y="50" width="12" height="12"/>
<rect class="motif-soft" x="146" y="50" width="12" height="12"/>
<rect class="motif-soft" x="210" y="50" width="12" height="12"/>
<rect class="motif-soft" x="18" y="66" width="12" height="12"/>
<rect class="motif-soft" x="34" y="66" width="12" height="12"/>
<rect class="motif-soft" x="2" y="82" width="12" height="12"/>
<rect class="motif-soft" x="34" y="82" width="12" height="12"/>
<rect class="motif-soft" x="66" y="82" width="12" height="12"/>
<rect class="motif-soft" x="114" y="82" width="12" height="12"/>
<rect class="motif-soft" x="146" y="82" width="12" height="12"/>
<rect class="motif-soft" x="194" y="82" width="12" height="12"/>
<rect class="motif-soft" x="34" y="98" width="12" height="12"/>
<rect class="motif-soft" x="50" y="98" width="12" height="12"/>
<rect class="motif-soft" x="130" y="98" width="12" height="12"/>
<rect class="motif-soft" x="146" y="98" width="12" height="12"/>
<rect class="motif-soft" x="226" y="98" width="12" height="12"/>
<rect class="motif-soft" x="178" y="114" width="12" height="12"/>
<rect class="motif-soft" x="210" y="114" width="12" height="12"/>
<rect class="motif-soft" x="226" y="114" width="12" height="12"/>
<rect class="motif-soft" x="50" y="130" width="12" height="12"/>
<rect class="motif-soft" x="66" y="130" width="12" height="12"/>
<rect class="motif-soft" x="178" y="130" width="12" height="12"/>
<rect class="motif-soft" x="210" y="130" width="12" height="12"/>
<rect class="motif-soft" x="2" y="146" width="12" height="12"/>
<rect class="motif-soft" x="18" y="146" width="12" height="12"/>
<rect class="motif-soft" x="146" y="146" width="12" height="12"/>
<rect class="motif-soft" x="178" y="146" width="12" height="12"/>
<rect class="motif-soft" x="210" y="146" width="12" height="12"/>
<rect class="motif-signal" x="18" y="130" width="12" height="12"/>
<rect class="motif-signal" x="82" y="98" width="12" height="12"/>
<rect class="motif-signal" x="146" y="66" width="12" height="12"/>
<rect class="motif-signal" x="210" y="34" width="12" height="12"/>
<rect class="motif-box" x="15" y="127" width="18" height="18"/>
<rect class="motif-box" x="79" y="95" width="18" height="18"/>
<rect class="motif-box" x="143" y="63" width="18" height="18"/>
<rect class="motif-box" x="207" y="31" width="18" height="18"/>
<path class="motif-arc" d="M24 127 Q56.0 77.5 88 95"/>
<path class="motif-arc" d="M88 95 Q120.0 45.5 152 63"/>
<path class="motif-arc" d="M152 63 Q184.0 13.5 216 31"/>
</svg>
