<svg xmlns="http://www.w3.org/2000/svg" class="motif" viewBox="0 0 240 160" preserveAspectRatio="xMidYMid slice" aria-hidden="true">
<rect class="motif-soft" x="146" y="2" width="12" height="12"/>
<rect class="motif-soft" x="162" y="50" width="12" height="12"/>
<rect class="motif-soft" x="130" y="98" width="12" height="12"/>
<rect class="motif-ink" x="2" y="146" width="12" height="12"/>
<rect class="motif-ink" x="18" y="146" width="12" height="12"/>
<rect class="motif-ink" x="34" y="146" width="12" height="12"/>
<rect class="motif-ink" x="50" y="146" width="12" height="12"/>
<rect class="motif-ink" x="66" y="146" width="12" height="12"/>
<rect class="motif-ink" x="82" y="146" width="12" height="12"/>
<rect class="motif-ink" x="98" y="146" width="12" height="12"/>
<rect class="motif-ink" x="114" y="146" width="12" height="12"/>
<rect class="motif-ink" x="130" y="146" width="12" height="12"/>
<rect class="motif-ink" x="146" y="146" width="12" height="12"/>
<rect class="motif-ink" x="162" y="146" width="12" height="12"/>
<rect class="motif-ink" x="178" y="146" width="12" height="12"/>
<rect class="motif-ink" x="194" y="146" width="12" height="12"/>
<rect class="motif-ink" x="210" y="146" width="12" height="12"/>
<rect class="motif-ink" x="226" y="146" width="12" height="12"/>
<rect class="motif-line" x="18" y="114" width="12" height="12"/>
<rect class="motif-line" x="18" y="130" width="12" height="12"/>
<rect class="motif-accent" x="34" y="98" width="12" height="12"/>
<rect class="motif-accent" x="34" y="114" width="12" height="12"/>
<rect class="motif-accent" x="34" y="130" width="12" height="12"/>
<rect class="motif-line" x="50" y="114" width="12" height="12"/>
<rect class="motif-line" x="50" y="130" width="12" height="12"/>
<rect class="motif-accent" x="66" y="82" width="12" height="12"/>
<rect class="motif-accent" x="66" y="98" width="12" height="12"/>
<rect class="motif-accent" x="66" y="114" width="12" height="12"/>
<rect class="motif-accent" x="66" y="130" width="12" height="12"/>
<rect class="motif-line" x="82" y="98" width="12" height="12"/>
<rect class="motif-line" x="82" y="114" width="12" height="12"/>
<rect class="motif-line" x="82" y="130" width="12" height="12"/>
<rect class="motif-signal" x="98" y="18" width="12" height="12"/>
<rect class="motif-signal" x="98" y="34" width="12" height="12"/>
<rect class="motif-signal" x="98" y="50" width="12" height="12"/>
<rect class="motif-signal" x="98" y="66" width="12" height="12"/>
<rect class="motif-signal" x="98" y="82" width="12" height="12"/>
<rect class="motif-signal" x="98" y="98" width="12" height="12"/>
<rect class="motif-signal" x="98" y="114" width="12" height="12"/>
<rect class="motif-signal" x="98" y="130" width="12" height="12"/>
<rect class="motif-line" x="114" y="98" width="12" height="12"/>
<rect class="motif-line" x="114" y="114" width="12" height="12"/>
<rect class="motif-line" x="114" y="130" width="12" height="12"/>
<rect class="motif-accent" x="130" y="114" width="12" height="12"/>
<rect class="motif-accent" x="130" y="130" width="12" height="12"/>
<rect class="motif-line" x="146" y="82" width="12" height="12"/>
<rect class="motif-line" x="146" y="98" width="12" height="12"/>
<rect class="motif-line" x="146" y="114" width="12" height="12"/>
<rect class="motif-line" x="146" y="130" width="12" height="12"/>
<rect class="motif-accent" x="162" y="98" width="12" height="12"/>
<rect class="motif-accent" x="162" y="114" width="12" height="12"/>
<rect class="motif-accent" x="162" y="130" width="12" height="12"/>
<rect class="motif-line" x="178" y="114" width="12" height="12"/>
<rect class="motif-line" x="178" y="130" width="12" height="12"/>
<rect class="motif-accent" x="194" y="98" width="12" height="12"/>
<rect class="motif-accent" x="194" y="114" width="12" height="12"/>
<rect class="motif-accent" x="194" y="130" width="12" height="12"/>
<rect class="motif-line" x="210" y="114" width="12" height="12"/>
<rect class="motif-line" x="210" y="130" width="12" height="12"/>
<rect class="motif-frame" x="64" y="0" width="80" height="144"/>
<rect class="motif-box" x="95" y="15" width="18" height="18"/>
</svg>
