<svg xmlns="http://www.w3.org/2000/svg" class="motif" viewBox="0 0 240 160" preserveAspectRatio="xMidYMid slice" aria-hidden="true">
<rect class="motif-soft" x="146" y="18" width="12" height="12"/>
<rect class="motif-soft" x="178" y="34" width="12" height="12"/>
<rect class="motif-soft" x="226" y="34" width="12" height="12"/>
<rect class="motif-soft" x="2" y="50" width="12" height="12"/>
<rect class="motif-soft" x="98" y="50" width="12" height="12"/>
<rect class="motif-soft" x="18" y="66" width="12" height="12"/>
<rect class="motif-soft" x="66" y="98" width="12" height="12"/>
<rect class="motif-soft" x="34" y="130" width="12" height="12"/>
<rect class="motif-soft" x="2" y="146" width="12" height="12"/>
<rect class="motif-signal" x="18" y="82" width="12" height="12"/>
<rect class="motif-accent" x="98" y="34" width="12" height="12"/>
<rect class="motif-accent" x="98" y="82" width="12" height="12"/>
<rect class="motif-accent" x="98" y="130" width="12" height="12"/>
<rect class="motif-ink" x="178" y="50" width="12" height="12"/>
<rect class="motif-ink" x="194" y="50" width="12" height="12"/>
<rect class="motif-ink" x="210" y="50" width="12" height="12"/>
<rect class="motif-ink" x="178" y="66" width="12" height="12"/>
<rect class="motif-ink" x="194" y="66" width="12" height="12"/>
<rect class="motif-ink" x="210" y="66" width="12" height="12"/>
<rect class="motif-ink" x="178" y="82" width="12" height="12"/>
<rect class="motif-ink" x="194" y="82" width="12" height="12"/>
<rect class="motif-ink" x="210" y="82" width="12" height="12"/>
<rect class="motif-ink" x="178" y="98" width="12" height="12"/>
<rect class="motif-ink" x="194" y="98" width="12" height="12"/>
<rect class="motif-ink" x="210" y="98" width="12" height="12"/>
<rect class="motif-ink" x="178" y="114" width="12" height="12"/>
<rect class="motif-ink" x="194" y="114" width="12" height="12"/>
<rect class="motif-ink" x="210" y="114" width="12" height="12"/>
<rect class="motif-box" x="15" y="79" width="18" height="18"/>
<rect class="motif-box" x="95" y="31" width="18" height="18"/>
<rect class="motif-box" x="95" y="79" width="18" height="18"/>
<rect class="motif-box" x="95" y="127" width="18" height="18"/>
<path class="motif-arc" d="M24 79 Q64.0 4.0 104 31"/>
<path class="motif-arc" d="M24 79 Q64.0 58.6 104 79"/>
<path class="motif-arc" d="M24 79 Q64.0 65.4 104 127"/>
<path class="motif-link-signal-heavy" d="M104 40 L184 56"/>
<path class="motif-link-signal-heavy" d="M104 88 L184 88"/>
<path class="motif-link-signal-heavy" d="M104 136 L184 120"/>
</svg>
